<?xml version="1.0" encoding="utf-8"?>
<!-- Generator: Adobe Illustrator 12.0.0, SVG Export Plug-In . SVG Version: 6.00 Build 51448)  -->
<!DOCTYPE svg PUBLIC "-//W3C//DTD SVG 1.1//EN" "http://www.w3.org/Graphics/SVG/1.1/DTD/svg11.dtd" [
	<!ENTITY ns_svg "http://www.w3.org/2000/svg">
	<!ENTITY ns_xlink "http://www.w3.org/1999/xlink">
]>
<svg  version="1.1" id="Layer_1" xmlns="&ns_svg;" xmlns:xlink="&ns_xlink;" width="206.683" height="271"
	 viewBox="0 0 206.683 271" overflow="visible" enable-background="new 0 0 206.683 271" xml:space="preserve">
<path d="M174,211.441c4.454,0.055,8.769-0.802,12.806-2.679h0.001c22.117-10.284,26.388-46.421,9.722-82.269
	c-6.051-13.014-13.914-23.929-22.528-32.079V12c0-6.627-5.373-12-12-12H43c-6.627,0-12,5.373-12,12v221H0v38h205v-38h-31V211.441z
	 M187.46,130.711c6.105,13.132,9.08,26.625,9.08,38.26c0,14.711-4.756,26.449-13.95,30.724c-2.654,1.234-5.549,1.775-8.59,1.705
	v-92.159C179.074,115.379,183.703,122.631,187.46,130.711z M48,66V30c0-6.627,5.373-12,12-12h85c6.627,0,12,5.373,12,12v36
	c0,6.627-5.373,12-12,12H60C53.373,78,48,72.627,48,66z"/>
</svg>
